<svg width="251" height="38" viewBox="0 0 251 38" fill="none" xmlns="http://www.w3.org/2000/svg">
<path d="M67.5265 25.544C67.7612 25.544 67.9692 25.6347 68.1505 25.816L69.8465 27.656C68.9078 28.8187 67.7505 29.7093 66.3745 30.328C65.0092 30.9467 63.3665 31.256 61.4465 31.256C59.7292 31.256 58.1825 30.9627 56.8065 30.376C55.4412 29.7893 54.2732 28.9733 53.3025 27.928C52.3318 26.8827 51.5852 25.6347 51.0625 24.184C50.5505 22.7333 50.2945 21.1493 50.2945 19.432C50.2945 17.6933 50.5718 16.104 51.1265 14.664C51.6812 13.2133 52.4598 11.9653 53.4625 10.92C54.4758 9.87467 55.6812 9.064 57.0785 8.488C58.4758 7.90133 60.0225 7.608 61.7185 7.608C63.4038 7.608 64.8972 7.88533 66.1985 8.44C67.5105 8.99467 68.6252 9.72 69.5425 10.616L68.1025 12.616C68.0172 12.744 67.9052 12.856 67.7665 12.952C67.6385 13.048 67.4572 13.096 67.2225 13.096C67.0625 13.096 66.8972 13.0533 66.7265 12.968C66.5558 12.872 66.3692 12.76 66.1665 12.632C65.9638 12.4933 65.7292 12.344 65.4625 12.184C65.1958 12.024 64.8865 11.88 64.5345 11.752C64.1825 11.6133 63.7718 11.5013 63.3025 11.416C62.8438 11.32 62.3105 11.272 61.7025 11.272C60.6678 11.272 59.7185 11.4587 58.8545 11.832C58.0012 12.1947 57.2652 12.728 56.6465 13.432C56.0278 14.1253 55.5478 14.9787 55.2065 15.992C54.8652 16.9947 54.6945 18.1413 54.6945 19.432C54.6945 20.7333 54.8758 21.8907 55.2385 22.904C55.6118 23.9173 56.1132 24.7707 56.7425 25.464C57.3718 26.1573 58.1132 26.6907 58.9665 27.064C59.8198 27.4267 60.7372 27.608 61.7185 27.608C62.3052 27.608 62.8332 27.576 63.3025 27.512C63.7825 27.448 64.2198 27.3467 64.6145 27.208C65.0198 27.0693 65.3985 26.8933 65.7505 26.68C66.1132 26.456 66.4705 26.184 66.8225 25.864C66.9292 25.768 67.0412 25.6933 67.1585 25.64C67.2758 25.576 67.3985 25.544 67.5265 25.544ZM76.1228 16.344C76.7628 15.7467 77.4668 15.2613 78.2348 14.888C79.0028 14.5147 79.9041 14.328 80.9388 14.328C81.8348 14.328 82.6294 14.4827 83.3228 14.792C84.0161 15.0907 84.5921 15.5173 85.0508 16.072C85.5201 16.616 85.8721 17.272 86.1068 18.04C86.3521 18.7973 86.4748 19.6347 86.4748 20.552V31H82.5228V20.552C82.5228 19.5493 82.2934 18.776 81.8348 18.232C81.3761 17.6773 80.6774 17.4 79.7388 17.4C79.0561 17.4 78.4161 17.5547 77.8188 17.864C77.2214 18.1733 76.6561 18.5947 76.1228 19.128V31H72.1708V7.224H76.1228V16.344ZM94.3293 14.584V31H90.3613V14.584H94.3293ZM94.8733 9.8C94.8733 10.1413 94.8039 10.4613 94.6653 10.76C94.5266 11.0587 94.3399 11.32 94.1053 11.544C93.8813 11.768 93.6146 11.9493 93.3053 12.088C92.9959 12.216 92.6653 12.28 92.3133 12.28C91.9719 12.28 91.6466 12.216 91.3373 12.088C91.0386 11.9493 90.7773 11.768 90.5533 11.544C90.3293 11.32 90.1479 11.0587 90.0093 10.76C89.8813 10.4613 89.8173 10.1413 89.8173 9.8C89.8173 9.448 89.8813 9.11733 90.0093 8.808C90.1479 8.49867 90.3293 8.232 90.5533 8.008C90.7773 7.784 91.0386 7.608 91.3373 7.48C91.6466 7.34133 91.9719 7.272 92.3133 7.272C92.6653 7.272 92.9959 7.34133 93.3053 7.48C93.6146 7.608 93.8813 7.784 94.1053 8.008C94.3399 8.232 94.5266 8.49867 94.6653 8.808C94.8039 9.11733 94.8733 9.448 94.8733 9.8ZM110.118 18.056C110.001 18.2053 109.884 18.3227 109.766 18.408C109.66 18.4933 109.5 18.536 109.286 18.536C109.084 18.536 108.886 18.4773 108.694 18.36C108.502 18.232 108.273 18.0933 108.006 17.944C107.74 17.784 107.42 17.6453 107.046 17.528C106.684 17.4 106.23 17.336 105.686 17.336C104.993 17.336 104.385 17.464 103.862 17.72C103.34 17.9653 102.902 18.3227 102.55 18.792C102.209 19.2613 101.953 19.832 101.782 20.504C101.612 21.1653 101.526 21.9173 101.526 22.76C101.526 23.6347 101.617 24.4133 101.798 25.096C101.99 25.7787 102.262 26.3547 102.614 26.824C102.966 27.2827 103.393 27.6347 103.894 27.88C104.396 28.1147 104.961 28.232 105.59 28.232C106.22 28.232 106.726 28.1573 107.11 28.008C107.505 27.848 107.836 27.6773 108.102 27.496C108.369 27.304 108.598 27.1333 108.79 26.984C108.993 26.824 109.217 26.744 109.462 26.744C109.782 26.744 110.022 26.8667 110.182 27.112L111.318 28.552C110.881 29.064 110.406 29.496 109.894 29.848C109.382 30.1893 108.849 30.4667 108.294 30.68C107.75 30.8827 107.185 31.0267 106.598 31.112C106.022 31.1973 105.446 31.24 104.87 31.24C103.857 31.24 102.902 31.0533 102.006 30.68C101.11 30.296 100.326 29.7413 99.6543 29.016C98.9823 28.2907 98.4489 27.4053 98.0543 26.36C97.6703 25.304 97.4783 24.104 97.4783 22.76C97.4783 21.5547 97.6489 20.44 97.9903 19.416C98.3423 18.3813 98.8543 17.4907 99.5263 16.744C100.198 15.9867 101.03 15.3947 102.022 14.968C103.014 14.5413 104.156 14.328 105.446 14.328C106.673 14.328 107.745 14.5253 108.662 14.92C109.59 15.3147 110.422 15.88 111.158 16.616L110.118 18.056ZM130.027 25.544C130.261 25.544 130.469 25.6347 130.651 25.816L132.347 27.656C131.408 28.8187 130.251 29.7093 128.875 30.328C127.509 30.9467 125.867 31.256 123.947 31.256C122.229 31.256 120.683 30.9627 119.307 30.376C117.941 29.7893 116.773 28.9733 115.803 27.928C114.832 26.8827 114.085 25.6347 113.562 24.184C113.051 22.7333 112.795 21.1493 112.795 19.432C112.795 17.6933 113.072 16.104 113.627 14.664C114.181 13.2133 114.96 11.9653 115.963 10.92C116.976 9.87467 118.181 9.064 119.579 8.488C120.976 7.90133 122.523 7.608 124.219 7.608C125.904 7.608 127.397 7.88533 128.699 8.44C130.011 8.99467 131.125 9.72 132.043 10.616L130.603 12.616C130.517 12.744 130.405 12.856 130.267 12.952C130.139 13.048 129.957 13.096 129.723 13.096C129.563 13.096 129.397 13.0533 129.227 12.968C129.056 12.872 128.869 12.76 128.667 12.632C128.464 12.4933 128.229 12.344 127.963 12.184C127.696 12.024 127.387 11.88 127.035 11.752C126.683 11.6133 126.272 11.5013 125.803 11.416C125.344 11.32 124.811 11.272 124.203 11.272C123.168 11.272 122.219 11.4587 121.355 11.832C120.501 12.1947 119.765 12.728 119.147 13.432C118.528 14.1253 118.048 14.9787 117.707 15.992C117.365 16.9947 117.195 18.1413 117.195 19.432C117.195 20.7333 117.376 21.8907 117.739 22.904C118.112 23.9173 118.613 24.7707 119.243 25.464C119.872 26.1573 120.613 26.6907 121.467 27.064C122.32 27.4267 123.237 27.608 124.219 27.608C124.805 27.608 125.333 27.576 125.803 27.512C126.283 27.448 126.72 27.3467 127.115 27.208C127.52 27.0693 127.899 26.8933 128.251 26.68C128.613 26.456 128.971 26.184 129.323 25.864C129.429 25.768 129.541 25.6933 129.659 25.64C129.776 25.576 129.899 25.544 130.027 25.544ZM138.671 7.224V31H134.719V7.224H138.671ZM149.872 14.328C151.088 14.328 152.192 14.5253 153.184 14.92C154.187 15.3147 155.04 15.8747 155.744 16.6C156.459 17.3253 157.008 18.2107 157.392 19.256C157.776 20.3013 157.968 21.4693 157.968 22.76C157.968 24.0613 157.776 25.2347 157.392 26.28C157.008 27.3253 156.459 28.216 155.744 28.952C155.04 29.688 154.187 30.2533 153.184 30.648C152.192 31.0427 151.088 31.24 149.872 31.24C148.646 31.24 147.531 31.0427 146.528 30.648C145.526 30.2533 144.667 29.688 143.952 28.952C143.248 28.216 142.699 27.3253 142.304 26.28C141.92 25.2347 141.728 24.0613 141.728 22.76C141.728 21.4693 141.92 20.3013 142.304 19.256C142.699 18.2107 143.248 17.3253 143.952 16.6C144.667 15.8747 145.526 15.3147 146.528 14.92C147.531 14.5253 148.646 14.328 149.872 14.328ZM149.872 28.2C151.238 28.2 152.246 27.7413 152.896 26.824C153.558 25.9067 153.888 24.5627 153.888 22.792C153.888 21.0213 153.558 19.672 152.896 18.744C152.246 17.816 151.238 17.352 149.872 17.352C148.486 17.352 147.456 17.8213 146.784 18.76C146.123 19.688 145.792 21.032 145.792 22.792C145.792 24.552 146.123 25.896 146.784 26.824C147.456 27.7413 148.486 28.2 149.872 28.2ZM170.999 17.784C170.893 17.9547 170.781 18.0773 170.663 18.152C170.546 18.216 170.397 18.248 170.215 18.248C170.023 18.248 169.815 18.1947 169.591 18.088C169.378 17.9813 169.127 17.864 168.839 17.736C168.551 17.5973 168.221 17.4747 167.847 17.368C167.485 17.2613 167.053 17.208 166.551 17.208C165.773 17.208 165.159 17.3733 164.711 17.704C164.274 18.0347 164.055 18.4667 164.055 19C164.055 19.352 164.167 19.6507 164.391 19.896C164.626 20.1307 164.93 20.3387 165.303 20.52C165.687 20.7013 166.119 20.8667 166.599 21.016C167.079 21.1547 167.565 21.3093 168.055 21.48C168.557 21.6507 169.047 21.848 169.527 22.072C170.007 22.2853 170.434 22.5627 170.807 22.904C171.191 23.2347 171.495 23.6347 171.719 24.104C171.954 24.5733 172.071 25.1387 172.071 25.8C172.071 26.5893 171.927 27.32 171.639 27.992C171.362 28.6533 170.946 29.2293 170.391 29.72C169.837 30.2 169.149 30.5787 168.327 30.856C167.517 31.1227 166.578 31.256 165.511 31.256C164.946 31.256 164.391 31.2027 163.847 31.096C163.314 31 162.797 30.8613 162.295 30.68C161.805 30.4987 161.346 30.2853 160.919 30.04C160.503 29.7947 160.135 29.528 159.815 29.24L160.727 27.736C160.845 27.5547 160.983 27.416 161.143 27.32C161.303 27.224 161.506 27.176 161.751 27.176C161.997 27.176 162.226 27.2453 162.439 27.384C162.663 27.5227 162.919 27.672 163.207 27.832C163.495 27.992 163.831 28.1413 164.215 28.28C164.61 28.4187 165.106 28.488 165.703 28.488C166.173 28.488 166.573 28.4347 166.903 28.328C167.245 28.2107 167.522 28.0613 167.735 27.88C167.959 27.6987 168.119 27.4907 168.215 27.256C168.322 27.0107 168.375 26.76 168.375 26.504C168.375 26.12 168.258 25.8053 168.023 25.56C167.799 25.3147 167.495 25.1013 167.111 24.92C166.738 24.7387 166.306 24.5787 165.815 24.44C165.335 24.2907 164.839 24.1307 164.327 23.96C163.826 23.7893 163.33 23.592 162.839 23.368C162.359 23.1333 161.927 22.84 161.543 22.488C161.17 22.136 160.866 21.704 160.631 21.192C160.407 20.68 160.295 20.0613 160.295 19.336C160.295 18.664 160.429 18.024 160.695 17.416C160.962 16.808 161.351 16.28 161.863 15.832C162.386 15.3733 163.031 15.0107 163.799 14.744C164.578 14.4667 165.474 14.328 166.487 14.328C167.618 14.328 168.647 14.5147 169.575 14.888C170.503 15.2613 171.277 15.752 171.895 16.36L170.999 17.784ZM185.622 20.904C185.622 20.392 185.547 19.912 185.398 19.464C185.259 19.0053 185.046 18.6053 184.758 18.264C184.47 17.9227 184.102 17.656 183.654 17.464C183.216 17.2613 182.704 17.16 182.118 17.16C180.976 17.16 180.075 17.4853 179.414 18.136C178.763 18.7867 178.347 19.7093 178.166 20.904H185.622ZM178.086 23.288C178.15 24.1307 178.299 24.8613 178.534 25.48C178.768 26.088 179.078 26.5947 179.462 27C179.846 27.3947 180.299 27.6933 180.822 27.896C181.355 28.088 181.942 28.184 182.582 28.184C183.222 28.184 183.771 28.1093 184.23 27.96C184.699 27.8107 185.104 27.6453 185.446 27.464C185.798 27.2827 186.102 27.1173 186.358 26.968C186.624 26.8187 186.88 26.744 187.126 26.744C187.456 26.744 187.702 26.8667 187.862 27.112L188.998 28.552C188.56 29.064 188.07 29.496 187.526 29.848C186.982 30.1893 186.411 30.4667 185.814 30.68C185.227 30.8827 184.624 31.0267 184.006 31.112C183.398 31.1973 182.806 31.24 182.23 31.24C181.088 31.24 180.027 31.0533 179.046 30.68C178.064 30.296 177.211 29.736 176.486 29C175.76 28.2533 175.19 27.336 174.774 26.248C174.358 25.1493 174.15 23.88 174.15 22.44C174.15 21.32 174.331 20.2693 174.694 19.288C175.056 18.296 175.574 17.4373 176.246 16.712C176.928 15.976 177.755 15.3947 178.726 14.968C179.707 14.5413 180.811 14.328 182.038 14.328C183.072 14.328 184.027 14.4933 184.902 14.824C185.776 15.1547 186.528 15.64 187.158 16.28C187.787 16.9093 188.278 17.688 188.63 18.616C188.992 19.5333 189.174 20.584 189.174 21.768C189.174 22.3653 189.11 22.7707 188.982 22.984C188.854 23.1867 188.608 23.288 188.246 23.288H178.086ZM197.455 31.256C196.026 31.256 194.927 30.856 194.159 30.056C193.402 29.2453 193.023 28.1307 193.023 26.712V17.544H191.343C191.13 17.544 190.949 17.4747 190.799 17.336C190.65 17.1973 190.575 16.9893 190.575 16.712V15.144L193.215 14.712L194.047 10.232C194.101 10.0187 194.202 9.85333 194.351 9.736C194.501 9.61867 194.693 9.56 194.927 9.56H196.975V14.728H201.359V17.544H196.975V26.44C196.975 26.952 197.098 27.352 197.343 27.64C197.599 27.928 197.946 28.072 198.383 28.072C198.629 28.072 198.831 28.0453 198.991 27.992C199.162 27.928 199.306 27.864 199.423 27.8C199.551 27.736 199.663 27.6773 199.759 27.624C199.855 27.56 199.951 27.528 200.047 27.528C200.165 27.528 200.261 27.56 200.335 27.624C200.41 27.6773 200.49 27.7627 200.575 27.88L201.759 29.8C201.183 30.28 200.522 30.6427 199.775 30.888C199.029 31.1333 198.255 31.256 197.455 31.256Z" fill="white"/>
</svg>
