<svg width="251" height="38" viewBox="0 0 251 38" fill="none" xmlns="http://www.w3.org/2000/svg">
<path d="M57.4079 11.4H50.4319V31H46.1279V11.4H39.1519V7.864H57.4079V11.4ZM63.2316 14.328C64.4476 14.328 65.5516 14.5253 66.5436 14.92C67.5463 15.3147 68.3996 15.8747 69.1036 16.6C69.8183 17.3253 70.3676 18.2107 70.7516 19.256C71.1356 20.3013 71.3276 21.4693 71.3276 22.76C71.3276 24.0613 71.1356 25.2347 70.7516 26.28C70.3676 27.3253 69.8183 28.216 69.1036 28.952C68.3996 29.688 67.5463 30.2533 66.5436 30.648C65.5516 31.0427 64.4476 31.24 63.2316 31.24C62.005 31.24 60.8903 31.0427 59.8876 30.648C58.885 30.2533 58.0263 29.688 57.3116 28.952C56.6076 28.216 56.0583 27.3253 55.6636 26.28C55.2796 25.2347 55.0876 24.0613 55.0876 22.76C55.0876 21.4693 55.2796 20.3013 55.6636 19.256C56.0583 18.2107 56.6076 17.3253 57.3116 16.6C58.0263 15.8747 58.885 15.3147 59.8876 14.92C60.8903 14.5253 62.005 14.328 63.2316 14.328ZM63.2316 28.2C64.597 28.2 65.605 27.7413 66.2556 26.824C66.917 25.9067 67.2476 24.5627 67.2476 22.792C67.2476 21.0213 66.917 19.672 66.2556 18.744C65.605 17.816 64.597 17.352 63.2316 17.352C61.845 17.352 60.8156 17.8213 60.1436 18.76C59.4823 19.688 59.1516 21.032 59.1516 22.792C59.1516 24.552 59.4823 25.896 60.1436 26.824C60.8156 27.7413 61.845 28.2 63.2316 28.2ZM78.2946 7.224V20.84H79.0306C79.2973 20.84 79.5053 20.808 79.6546 20.744C79.8146 20.6693 79.9746 20.5253 80.1346 20.312L84.2146 15.272C84.3853 15.048 84.572 14.8773 84.7746 14.76C84.988 14.6427 85.26 14.584 85.5906 14.584H89.2066L84.1026 20.68C83.74 21.16 83.3453 21.528 82.9186 21.784C83.1426 21.944 83.34 22.1307 83.5106 22.344C83.692 22.5573 83.8626 22.7867 84.0226 23.032L89.4946 31H85.9266C85.6173 31 85.3506 30.952 85.1266 30.856C84.9026 30.7493 84.716 30.5627 84.5666 30.296L80.3746 24.072C80.2253 23.8267 80.0706 23.6667 79.9106 23.592C79.7506 23.5173 79.5106 23.48 79.1906 23.48H78.2946V31H74.3426V7.224H78.2946ZM101.169 20.904C101.169 20.392 101.094 19.912 100.945 19.464C100.806 19.0053 100.593 18.6053 100.305 18.264C100.017 17.9227 99.6486 17.656 99.2006 17.464C98.7633 17.2613 98.2513 17.16 97.6646 17.16C96.5233 17.16 95.622 17.4853 94.9606 18.136C94.31 18.7867 93.894 19.7093 93.7126 20.904H101.169ZM93.6326 23.288C93.6966 24.1307 93.846 24.8613 94.0806 25.48C94.3153 26.088 94.6246 26.5947 95.0086 27C95.3926 27.3947 95.846 27.6933 96.3686 27.896C96.902 28.088 97.4886 28.184 98.1286 28.184C98.7686 28.184 99.318 28.1093 99.7766 27.96C100.246 27.8107 100.651 27.6453 100.993 27.464C101.345 27.2827 101.649 27.1173 101.905 26.968C102.171 26.8187 102.427 26.744 102.673 26.744C103.003 26.744 103.249 26.8667 103.409 27.112L104.545 28.552C104.107 29.064 103.617 29.496 103.073 29.848C102.529 30.1893 101.958 30.4667 101.361 30.68C100.774 30.8827 100.171 31.0267 99.5526 31.112C98.9446 31.1973 98.3526 31.24 97.7766 31.24C96.6353 31.24 95.574 31.0533 94.5926 30.68C93.6113 30.296 92.758 29.736 92.0326 29C91.3073 28.2533 90.7366 27.336 90.3206 26.248C89.9046 25.1493 89.6966 23.88 89.6966 22.44C89.6966 21.32 89.878 20.2693 90.2406 19.288C90.6033 18.296 91.1206 17.4373 91.7926 16.712C92.4753 15.976 93.302 15.3947 94.2726 14.968C95.254 14.5413 96.358 14.328 97.5846 14.328C98.6193 14.328 99.574 14.4933 100.449 14.824C101.323 15.1547 102.075 15.64 102.705 16.28C103.334 16.9093 103.825 17.688 104.177 18.616C104.539 19.5333 104.721 20.584 104.721 21.768C104.721 22.3653 104.657 22.7707 104.529 22.984C104.401 23.1867 104.155 23.288 103.793 23.288H93.6326ZM111.382 16.6C111.713 16.2693 112.06 15.9653 112.422 15.688C112.796 15.4 113.185 15.16 113.59 14.968C114.006 14.7653 114.449 14.6107 114.918 14.504C115.388 14.3867 115.9 14.328 116.454 14.328C117.35 14.328 118.145 14.4827 118.838 14.792C119.532 15.0907 120.108 15.5173 120.566 16.072C121.036 16.616 121.388 17.272 121.622 18.04C121.868 18.7973 121.99 19.6347 121.99 20.552V31H118.038V20.552C118.038 19.5493 117.809 18.776 117.35 18.232C116.892 17.6773 116.193 17.4 115.254 17.4C114.572 17.4 113.932 17.5547 113.334 17.864C112.737 18.1733 112.172 18.5947 111.638 19.128V31H107.686V14.584H110.102C110.614 14.584 110.95 14.824 111.11 15.304L111.382 16.6ZM154.698 19.432C154.698 21.128 154.415 22.6853 153.85 24.104C153.285 25.5227 152.49 26.744 151.466 27.768C150.442 28.792 149.21 29.5867 147.77 30.152C146.33 30.7173 144.73 31 142.97 31H134.154V7.864H142.97C144.73 7.864 146.33 8.152 147.77 8.728C149.21 9.29333 150.442 10.088 151.466 11.112C152.49 12.1253 153.285 13.3413 153.85 14.76C154.415 16.1787 154.698 17.736 154.698 19.432ZM150.282 19.432C150.282 18.1627 150.111 17.0267 149.77 16.024C149.439 15.0107 148.954 14.1573 148.314 13.464C147.685 12.76 146.917 12.2213 146.01 11.848C145.114 11.4747 144.101 11.288 142.97 11.288H138.474V27.576H142.97C144.101 27.576 145.114 27.3893 146.01 27.016C146.917 26.6427 147.685 26.1093 148.314 25.416C148.954 24.712 149.439 23.8587 149.77 22.856C150.111 21.8427 150.282 20.7013 150.282 19.432ZM161.321 17.432C161.833 16.4507 162.441 15.6827 163.145 15.128C163.849 14.5627 164.681 14.28 165.641 14.28C166.398 14.28 167.006 14.4453 167.465 14.776L167.209 17.736C167.155 17.928 167.075 18.0667 166.969 18.152C166.873 18.2267 166.739 18.264 166.569 18.264C166.409 18.264 166.169 18.2373 165.849 18.184C165.539 18.1307 165.235 18.104 164.937 18.104C164.499 18.104 164.11 18.168 163.769 18.296C163.427 18.424 163.118 18.6107 162.841 18.856C162.574 19.0907 162.334 19.3787 162.121 19.72C161.918 20.0613 161.726 20.4507 161.545 20.888V31H157.593V14.584H159.913C160.318 14.584 160.601 14.6587 160.761 14.808C160.921 14.9467 161.027 15.2027 161.081 15.576L161.321 17.432ZM179.637 20.904C179.637 20.392 179.563 19.912 179.413 19.464C179.275 19.0053 179.061 18.6053 178.773 18.264C178.485 17.9227 178.117 17.656 177.669 17.464C177.232 17.2613 176.72 17.16 176.133 17.16C174.992 17.16 174.091 17.4853 173.429 18.136C172.779 18.7867 172.363 19.7093 172.181 20.904H179.637ZM172.101 23.288C172.165 24.1307 172.315 24.8613 172.549 25.48C172.784 26.088 173.093 26.5947 173.477 27C173.861 27.3947 174.315 27.6933 174.837 27.896C175.371 28.088 175.957 28.184 176.597 28.184C177.237 28.184 177.787 28.1093 178.245 27.96C178.715 27.8107 179.12 27.6453 179.461 27.464C179.813 27.2827 180.117 27.1173 180.373 26.968C180.64 26.8187 180.896 26.744 181.141 26.744C181.472 26.744 181.717 26.8667 181.877 27.112L183.013 28.552C182.576 29.064 182.085 29.496 181.541 29.848C180.997 30.1893 180.427 30.4667 179.829 30.68C179.243 30.8827 178.64 31.0267 178.021 31.112C177.413 31.1973 176.821 31.24 176.245 31.24C175.104 31.24 174.043 31.0533 173.061 30.68C172.08 30.296 171.227 29.736 170.501 29C169.776 28.2533 169.205 27.336 168.789 26.248C168.373 25.1493 168.165 23.88 168.165 22.44C168.165 21.32 168.347 20.2693 168.709 19.288C169.072 18.296 169.589 17.4373 170.261 16.712C170.944 15.976 171.771 15.3947 172.741 14.968C173.723 14.5413 174.827 14.328 176.053 14.328C177.088 14.328 178.043 14.4933 178.917 14.824C179.792 15.1547 180.544 15.64 181.173 16.28C181.803 16.9093 182.293 17.688 182.645 18.616C183.008 19.5333 183.189 20.584 183.189 21.768C183.189 22.3653 183.125 22.7707 182.997 22.984C182.869 23.1867 182.624 23.288 182.261 23.288H172.101ZM196.171 17.784C196.064 17.9547 195.952 18.0773 195.835 18.152C195.718 18.216 195.568 18.248 195.387 18.248C195.195 18.248 194.987 18.1947 194.763 18.088C194.55 17.9813 194.299 17.864 194.011 17.736C193.723 17.5973 193.392 17.4747 193.019 17.368C192.656 17.2613 192.224 17.208 191.723 17.208C190.944 17.208 190.331 17.3733 189.883 17.704C189.446 18.0347 189.227 18.4667 189.227 19C189.227 19.352 189.339 19.6507 189.563 19.896C189.798 20.1307 190.102 20.3387 190.475 20.52C190.859 20.7013 191.291 20.8667 191.771 21.016C192.251 21.1547 192.736 21.3093 193.227 21.48C193.728 21.6507 194.219 21.848 194.699 22.072C195.179 22.2853 195.606 22.5627 195.979 22.904C196.363 23.2347 196.667 23.6347 196.891 24.104C197.126 24.5733 197.243 25.1387 197.243 25.8C197.243 26.5893 197.099 27.32 196.811 27.992C196.534 28.6533 196.118 29.2293 195.563 29.72C195.008 30.2 194.32 30.5787 193.499 30.856C192.688 31.1227 191.75 31.256 190.683 31.256C190.118 31.256 189.563 31.2027 189.019 31.096C188.486 31 187.968 30.8613 187.467 30.68C186.976 30.4987 186.518 30.2853 186.091 30.04C185.675 29.7947 185.307 29.528 184.987 29.24L185.899 27.736C186.016 27.5547 186.155 27.416 186.315 27.32C186.475 27.224 186.678 27.176 186.923 27.176C187.168 27.176 187.398 27.2453 187.611 27.384C187.835 27.5227 188.091 27.672 188.379 27.832C188.667 27.992 189.003 28.1413 189.387 28.28C189.782 28.4187 190.278 28.488 190.875 28.488C191.344 28.488 191.744 28.4347 192.075 28.328C192.416 28.2107 192.694 28.0613 192.907 27.88C193.131 27.6987 193.291 27.4907 193.387 27.256C193.494 27.0107 193.547 26.76 193.547 26.504C193.547 26.12 193.43 25.8053 193.195 25.56C192.971 25.3147 192.667 25.1013 192.283 24.92C191.91 24.7387 191.478 24.5787 190.987 24.44C190.507 24.2907 190.011 24.1307 189.499 23.96C188.998 23.7893 188.502 23.592 188.011 23.368C187.531 23.1333 187.099 22.84 186.715 22.488C186.342 22.136 186.038 21.704 185.803 21.192C185.579 20.68 185.467 20.0613 185.467 19.336C185.467 18.664 185.6 18.024 185.867 17.416C186.134 16.808 186.523 16.28 187.035 15.832C187.558 15.3733 188.203 15.0107 188.971 14.744C189.75 14.4667 190.646 14.328 191.659 14.328C192.79 14.328 193.819 14.5147 194.747 14.888C195.675 15.2613 196.448 15.752 197.067 16.36L196.171 17.784ZM210.234 17.784C210.127 17.9547 210.015 18.0773 209.898 18.152C209.78 18.216 209.631 18.248 209.45 18.248C209.258 18.248 209.05 18.1947 208.826 18.088C208.612 17.9813 208.362 17.864 208.074 17.736C207.786 17.5973 207.455 17.4747 207.082 17.368C206.719 17.2613 206.287 17.208 205.786 17.208C205.007 17.208 204.394 17.3733 203.946 17.704C203.508 18.0347 203.29 18.4667 203.29 19C203.29 19.352 203.402 19.6507 203.626 19.896C203.86 20.1307 204.164 20.3387 204.538 20.52C204.922 20.7013 205.354 20.8667 205.834 21.016C206.314 21.1547 206.799 21.3093 207.29 21.48C207.791 21.6507 208.282 21.848 208.762 22.072C209.242 22.2853 209.668 22.5627 210.042 22.904C210.426 23.2347 210.73 23.6347 210.954 24.104C211.188 24.5733 211.306 25.1387 211.306 25.8C211.306 26.5893 211.162 27.32 210.874 27.992C210.596 28.6533 210.18 29.2293 209.626 29.72C209.071 30.2 208.383 30.5787 207.562 30.856C206.751 31.1227 205.812 31.256 204.746 31.256C204.18 31.256 203.626 31.2027 203.082 31.096C202.548 31 202.031 30.8613 201.53 30.68C201.039 30.4987 200.58 30.2853 200.154 30.04C199.738 29.7947 199.37 29.528 199.05 29.24L199.962 27.736C200.079 27.5547 200.218 27.416 200.378 27.32C200.538 27.224 200.74 27.176 200.986 27.176C201.231 27.176 201.46 27.2453 201.674 27.384C201.898 27.5227 202.154 27.672 202.442 27.832C202.73 27.992 203.066 28.1413 203.45 28.28C203.844 28.4187 204.34 28.488 204.938 28.488C205.407 28.488 205.807 28.4347 206.138 28.328C206.479 28.2107 206.756 28.0613 206.97 27.88C207.194 27.6987 207.354 27.4907 207.45 27.256C207.556 27.0107 207.61 26.76 207.61 26.504C207.61 26.12 207.492 25.8053 207.258 25.56C207.034 25.3147 206.73 25.1013 206.346 24.92C205.972 24.7387 205.54 24.5787 205.05 24.44C204.57 24.2907 204.074 24.1307 203.562 23.96C203.06 23.7893 202.564 23.592 202.074 23.368C201.594 23.1333 201.162 22.84 200.778 22.488C200.404 22.136 200.1 21.704 199.866 21.192C199.642 20.68 199.53 20.0613 199.53 19.336C199.53 18.664 199.663 18.024 199.93 17.416C200.196 16.808 200.586 16.28 201.098 15.832C201.62 15.3733 202.266 15.0107 203.034 14.744C203.812 14.4667 204.708 14.328 205.722 14.328C206.852 14.328 207.882 14.5147 208.81 14.888C209.738 15.2613 210.511 15.752 211.13 16.36L210.234 17.784Z" fill="#280DCF"/>
</svg>
